<?xml version="1.0" encoding="UTF-8" standalone="no"?><!DOCTYPE svg PUBLIC "-//W3C//DTD SVG 1.1//EN" "http://www.w3.org/Graphics/SVG/1.1/DTD/svg11.dtd"><svg width="100%" height="100%" viewBox="0 0 264 355" version="1.1" xmlns="http://www.w3.org/2000/svg" xmlns:xlink="http://www.w3.org/1999/xlink" xml:space="preserve" style="fill-rule:evenodd;clip-rule:evenodd;stroke-linejoin:round;stroke-miterlimit:1.41421;"><path d="M140.266,0c-1.206,0 -2.429,0 -3.679,0.046c-1.27,0.041 -2.589,0.137 -3.906,0.229c-82.132,5.581 -82.152,58.758 -81.03,110.462c1.567,72.224 -9.626,118.324 -35.882,150.933c-31.674,39.337 -12.683,70.409 30.749,38.789c10.803,-7.864 2.108,48.15 31.295,53.46c21.968,3.996 36.138,-42.114 51.234,-43.15c27.612,-1.894 32.63,42.204 56.731,35.746c22.973,-6.156 5.748,-36.01 19.985,-42.65c16.186,-7.549 35.259,30.66 51.824,13.717c20.916,-21.392 -15.603,-42.597 -33.611,-83.21c-18.321,-41.319 -22.858,-85.708 -19.213,-131.901c0,0 11.474,-101.394 -64.497,-102.469l0,-0.002Zm30.296,70.992c4.427,0.447 9.689,9.968 12.081,22.256c2.553,13.107 0.91,24.412 -3.679,25.254c-4.588,0.842 -10.392,-9.103 -12.944,-22.211c-2.552,-13.107 -0.909,-24.412 3.679,-25.254c0.286,-0.054 0.567,-0.074 0.863,-0.045l0,0Zm-43.649,0.317c0.382,0 0.76,0.058 1.135,0.137c5.998,1.274 8.635,12.872 5.859,25.935c-2.775,13.063 -9.898,22.622 -15.897,21.348c-5.998,-1.274 -8.634,-12.872 -5.859,-25.935c2.602,-12.247 9.028,-21.437 14.762,-21.484l0,-0.001Zm22.392,65.133c16.638,0 30.159,13.091 30.159,22.346c0,9.256 -13.521,-1.589 -30.159,-1.589c-16.638,0 -30.114,10.845 -30.114,1.589c0,-9.255 13.476,-22.346 30.114,-22.346Z" style="fill:#d544f9;fill-rule:nonzero;"/></svg>